<svg width="21" height="18" viewBox="0 0 21 18" fill="none" xmlns="http://www.w3.org/2000/svg">
<g clip-path="url(#clip0_114_3)">
<path d="M4.88823 5.79077H0.67245C0.485347 5.79077 0.33374 5.92078 0.33374 6.08109V17.6898C0.33374 17.8502 0.485347 17.9801 0.67245 17.9801H4.88823C5.07534 17.9801 5.22694 17.8502 5.22694 17.6898V6.08109C5.22694 5.92078 5.07534 5.79077 4.88823 5.79077Z" fill="#5E7591"/>
<path d="M2.78189 0.0198059C1.24794 0.0198059 0 1.08831 0 2.40167C0 3.71561 1.24794 4.78452 2.78189 4.78452C4.31462 4.78452 5.56154 3.71555 5.56154 2.40167C5.56161 1.08831 4.31462 0.0198059 2.78189 0.0198059Z" fill="#5E7591"/>
<path d="M15.6114 5.50226C13.9182 5.50226 12.6665 6.12616 11.9073 6.83507V6.0811C11.9073 5.92079 11.7557 5.79078 11.5686 5.79078H7.53128C7.34417 5.79078 7.19257 5.92079 7.19257 6.0811V17.6898C7.19257 17.8502 7.34417 17.9801 7.53128 17.9801H11.7378C11.9249 17.9801 12.0766 17.8502 12.0766 17.6898V11.9462C12.0766 10.0107 12.6899 9.25671 14.2639 9.25671C15.9782 9.25671 16.1144 10.4655 16.1144 12.0458V17.6899C16.1144 17.8503 16.2661 17.9802 16.4532 17.9802H20.6613C20.8484 17.9802 21 17.8503 21 17.6899V11.3223C21 8.44433 20.3598 5.50226 15.6114 5.50226Z" fill="#5E7591"/>
</g>
<defs>
<clipPath id="clip0_114_3">
<rect width="21" height="18" fill="white"/>
</clipPath>
</defs>
</svg>
