<svg xmlns="http://www.w3.org/2000/svg" width="23" height="17" viewBox="0 0 23 17" fill="none">
<path d="M0 2.83333C0 2.08189 0.302901 1.36122 0.842068 0.829864C1.38124 0.298511 2.1125 0 2.875 0H20.125C20.8875 0 21.6188 0.298511 22.1579 0.829864C22.6971 1.36122 23 2.08189 23 2.83333V14.1667C23 14.9181 22.6971 15.6388 22.1579 16.1701C21.6188 16.7015 20.8875 17 20.125 17H2.875C2.1125 17 1.38124 16.7015 0.842068 16.1701C0.302901 15.6388 0 14.9181 0 14.1667V2.83333ZM2.875 1.41667C2.49375 1.41667 2.12812 1.56592 1.85853 1.8316C1.58895 2.09728 1.4375 2.45761 1.4375 2.83333V3.14075L11.5 9.09075L21.5625 3.14075V2.83333C21.5625 2.45761 21.411 2.09728 21.1415 1.8316C20.8719 1.56592 20.5062 1.41667 20.125 1.41667H2.875ZM21.5625 4.79258L14.7229 8.83717L21.5625 12.9115V4.794V4.79258ZM21.5136 14.5364L13.3271 9.66167L11.5 10.7426L9.6715 9.66167L1.48638 14.535C1.5686 14.8359 1.74922 15.1018 2.00026 15.2913C2.25131 15.4808 2.55876 15.5835 2.875 15.5833H20.125C20.441 15.5835 20.7484 15.4811 20.9994 15.2918C21.2504 15.1026 21.4311 14.8371 21.5136 14.5364ZM1.4375 12.9115L8.27712 8.83717L1.4375 4.79258V12.9101V12.9115Z" fill="#5E7591"/>
</svg>