<svg width="34" height="29" viewBox="0 0 34 29" fill="none" xmlns="http://www.w3.org/2000/svg">
<path fill-rule="evenodd" clip-rule="evenodd" d="M0 27.1875C0 26.7068 0.255866 26.2457 0.711312 25.9059C1.16676 25.566 1.78447 25.375 2.42858 25.375H31.5714C32.2156 25.375 32.8332 25.566 33.2886 25.9059C33.7442 26.2457 34 26.7068 34 27.1875C34 27.6682 33.7442 28.1293 33.2886 28.4691C32.8332 28.809 32.2156 29 31.5714 29H2.42858C1.78447 29 1.16676 28.809 0.711312 28.4691C0.255866 28.1293 0 27.6682 0 27.1875ZM7.99728 13.2186C8.45272 12.8788 9.07032 12.6879 9.71428 12.6879C10.3583 12.6879 10.9759 12.8788 11.4313 13.2186L14.5714 15.5621V1.8125C14.5714 1.3318 14.8273 0.870779 15.2827 0.530869C15.7382 0.19096 16.3559 0 17 0C17.6441 0 18.2618 0.19096 18.7173 0.530869C19.1727 0.870779 19.4286 1.3318 19.4286 1.8125V15.5621L22.5688 13.2186C22.7928 13.0455 23.0608 12.9074 23.357 12.8124C23.6534 12.7174 23.972 12.6674 24.2944 12.6653C24.617 12.6632 24.9368 12.7091 25.2352 12.8002C25.5336 12.8913 25.8048 13.0259 26.0328 13.1961C26.2608 13.3663 26.4412 13.5686 26.5632 13.7914C26.6854 14.0141 26.7468 14.2528 26.744 14.4935C26.7412 14.7341 26.6742 14.972 26.547 15.1931C26.4196 15.4142 26.2346 15.6142 26.0028 15.7814L18.717 21.2189C18.2616 21.5588 17.644 21.7496 17 21.7496C16.356 21.7496 15.7384 21.5588 15.283 21.2189L7.99728 15.7814C7.542 15.4415 7.28624 14.9806 7.28624 14.5C7.28624 14.0194 7.542 13.5585 7.99728 13.2186Z" fill="white"/>
</svg>
