<svg width="25" height="24" viewBox="0 0 25 24" fill="none" xmlns="http://www.w3.org/2000/svg">
<path fill-rule="evenodd" clip-rule="evenodd" d="M23.4375 3C23.4375 2.60218 23.2729 2.22064 22.9799 1.93934C22.6868 1.65804 22.2894 1.5 21.875 1.5H3.125C2.7106 1.5 2.31317 1.65804 2.02015 1.93934C1.72712 2.22064 1.5625 2.60218 1.5625 3V21C1.5625 21.3978 1.72712 21.7794 2.02015 22.0607C2.31317 22.342 2.7106 22.5 3.125 22.5H21.875C22.2894 22.5 22.6868 22.342 22.9799 22.0607C23.2729 21.7794 23.4375 21.3978 23.4375 21V3ZM0 3C0 2.20435 0.32924 1.44129 0.915291 0.87868C1.50134 0.316071 2.2962 0 3.125 0H12.5H21.875C22.7038 0 23.4987 0.316071 24.0847 0.87868C24.6708 1.44129 25 2.20435 25 3V21C25 21.7957 24.6708 22.5587 24.0847 23.1213C23.4987 23.6839 22.7038 24 21.875 24H3.125C2.2962 24 1.50134 23.6839 0.915291 23.1213C0.32924 22.5587 0 21.7957 0 21V3ZM7.03125 11.25C6.82405 11.25 6.62534 11.329 6.47882 11.4697C6.33231 11.6103 6.25 11.8011 6.25 12C6.25 12.1989 6.33231 12.3897 6.47882 12.5303C6.62534 12.671 6.82405 12.75 7.03125 12.75H16.0828L12.7281 15.969C12.6555 16.0387 12.5979 16.1215 12.5586 16.2126C12.5192 16.3037 12.499 16.4014 12.499 16.5C12.499 16.5986 12.5192 16.6963 12.5586 16.7874C12.5979 16.8785 12.6555 16.9613 12.7281 17.031C12.8008 17.1007 12.887 17.156 12.9819 17.1938C13.0768 17.2315 13.1785 17.2509 13.2812 17.2509C13.384 17.2509 13.4857 17.2315 13.5806 17.1938C13.6755 17.156 13.7617 17.1007 13.8344 17.031L18.5219 12.531C18.5946 12.4613 18.6524 12.3786 18.6917 12.2874C18.7311 12.1963 18.7514 12.0987 18.7514 12C18.7514 11.9013 18.7311 11.8037 18.6917 11.7126C18.6524 11.6214 18.5946 11.5387 18.5219 11.469L13.8344 6.969C13.7617 6.89927 13.6755 6.84395 13.5806 6.80622C13.4857 6.76848 13.384 6.74905 13.2812 6.74905C13.1785 6.74905 13.0768 6.76848 12.9819 6.80622C12.887 6.84395 12.8008 6.89927 12.7281 6.969C12.6555 7.03873 12.5979 7.12152 12.5586 7.21262C12.5192 7.30373 12.499 7.40138 12.499 7.5C12.499 7.59862 12.5192 7.69627 12.5586 7.78738C12.5979 7.87849 12.6555 7.96127 12.7281 8.031L16.0828 11.25H7.03125Z" fill="white"/>
</svg>
