<svg xmlns="http://www.w3.org/2000/svg" width="18" height="18" viewBox="0 0 18 18" fill="none">
<path d="M16.0714 0H1.92857C0.863437 0 0 0.863437 0 1.92857V16.0714C0 17.1366 0.863437 18 1.92857 18H16.0714C17.1366 18 18 17.1366 18 16.0714V1.92857C18 0.863437 17.1366 0 16.0714 0ZM16.0714 16.0714H1.92857V1.92857H16.0714V16.0714ZM14.6305 6.3593L7.69608 13.238C7.50704 13.4255 7.20177 13.4243 7.01425 13.2353L3.3668 9.55832C3.17929 9.36928 3.1805 9.064 3.36958 8.87645L4.28239 7.97099C4.47143 7.78347 4.77671 7.78468 4.96422 7.97376L7.36658 10.3956L13.0459 4.76192C13.2349 4.57441 13.5402 4.57562 13.7277 4.76466L14.6332 5.67743C14.8207 5.86651 14.8195 6.17179 14.6305 6.3593Z" fill="#5E7591"/>
</svg>